<?xml version="1.0" encoding="utf-8"?>
<!-- Generator: Adobe Illustrator 21.1.0, SVG Export Plug-In . SVG Version: 6.00 Build 0)  -->
<svg version="1.1" id="Layer_1" xmlns="http://www.w3.org/2000/svg" xmlns:xlink="http://www.w3.org/1999/xlink" x="0px" y="0px"
	 viewBox="0 0 44 44" style="enable-background:new 0 0 44 44;" xml:space="preserve">
<style type="text/css">
	.st0{fill:#3BADFE;}
	.st1{fill:#FFFFFF;}
</style>
<g>
	<path class="st0" d="M4.6,0h34.7c2.6,0,4.7,2.1,4.7,4.7v34.7c0,2.6-2.1,4.7-4.7,4.7H4.6c-2.6,0-4.7-2.1-4.7-4.7V4.7
		C-0.1,2.1,2,0,4.6,0z"/>
	<g id="Page-1">
		<g id="yabit-icon-copy-3">
			<g id="Group">
				<polygon id="Shape" class="st1" points="27.3,7.1 22,17.3 16.5,7.1 8.2,7.1 18,24.2 18,24.3 11.1,36.9 19.2,36.9 35.6,7.1 				
					"/>
				<path id="Shape_1_" class="st1" d="M34.6,31.1c0.7,0.7,1,1.5,1,2.4c0,0.9-0.3,1.7-1,2.4c-0.7,0.7-1.5,1-2.5,1
					c-1,0-1.8-0.3-2.5-1c-0.7-0.7-1-1.5-1-2.4c0-0.9,0.3-1.7,1-2.4c0.7-0.7,1.5-1,2.5-1C33.1,30.1,33.9,30.5,34.6,31.1z"/>
			</g>
		</g>
	</g>
</g>
</svg>
